<svg xmlns:dc="http://purl.org/dc/elements/1.1/" xmlns:cc="http://creativecommons.org/ns#" xmlns:rdf="http://www.w3.org/1999/02/22-rdf-syntax-ns#" xmlns:svg="http://www.w3.org/2000/svg" xmlns="http://www.w3.org/2000/svg" xmlns:sodipodi="http://sodipodi.sourceforge.net/DTD/sodipodi-0.dtd" xmlns:inkscape="http://www.inkscape.org/namespaces/inkscape" viewBox="0 0 8.4666667 10.583333625" version="1.1" x="0px" y="0px"><svg:g><svg:path style="color:#000000;font-style:normal;font-variant:normal;font-weight:normal;font-stretch:normal;font-size:medium;line-height:normal;font-family:sans-serif;font-variant-ligatures:normal;font-variant-position:normal;font-variant-caps:normal;font-variant-numeric:normal;font-variant-alternates:normal;font-feature-settings:normal;text-indent:0;text-align:start;text-decoration:none;text-decoration-line:none;text-decoration-style:solid;text-decoration-color:#000000;letter-spacing:normal;word-spacing:normal;text-transform:none;writing-mode:lr-tb;direction:ltr;text-orientation:mixed;dominant-baseline:auto;baseline-shift:baseline;text-anchor:start;white-space:normal;shape-padding:0;clip-rule:nonzero;display:inline;overflow:visible;visibility:visible;opacity:1;isolation:auto;mix-blend-mode:normal;color-interpolation:sRGB;color-interpolation-filters:linearRGB;solid-color:#000000;solid-opacity:1;vector-effect:none;fill:#000000;fill-opacity:1;fill-rule:nonzero;stroke:none;stroke-width:0.5291667;stroke-linecap:round;stroke-linejoin:round;stroke-miterlimit:4;stroke-dasharray:none;stroke-dashoffset:0;stroke-opacity:1;color-rendering:auto;image-rendering:auto;shape-rendering:auto;text-rendering:auto;enable-background:accumulate" d="M 3.9749503,3.300107e-7 A 0.26460979,0.26460979 0 0 0 3.7108837,0.26561533 V 3.9217233 a 0.26460979,0.26460979 0 0 0 0.4103111,0.22066 L 4.8612013,3.6561053 H 8.2010502 A 0.26460979,0.26460979 0 0 0 8.4666654,3.3925563 V 0.26561533 A 0.26460979,0.26460979 0 0 0 8.2010502,3.300107e-7 Z M 4.2405674,0.52916733 H 7.9374987 V 3.1269383 H 4.7831699 a 0.26460979,0.26460979 0 0 0 -0.1462445,0.04496 l -0.396358,0.259416 z M 6.2042715,1.0914063 a 0.26460981,0.26460981 0 0 0 -0.0031,5.16e-4 0.26460981,0.26460981 0 0 0 -0.241845,0.198953 l -0.2521823,0.937411 a 0.26483363,0.26483363 0 1 0 0.5115983,0.136943 l 0.2521797,-0.93586 A 0.26460981,0.26460981 0 0 0 6.2042715,1.0914063 Z m -0.7859977,0.0098 a 0.26460981,0.26460981 0 0 0 -0.1839687,0.07648 l -0.480074,0.458886 a 0.26460981,0.26460981 0 0 0 0,0.382923 l 0.480074,0.460955 A 0.26462801,0.26462801 0 1 0 5.5996563,2.0975453 L 5.3185365,1.8277943 5.5996563,1.5585603 A 0.26460981,0.26460981 0 0 0 5.4182738,1.1012253 Z m 1.3337673,0 a 0.26460981,0.26460981 0 0 0 -0.1736329,0.457354 l 0.2811198,0.269234 -0.2811198,0.269751 a 0.26460981,0.26460981 0 1 0 0.3648366,0.382924 l 0.4805919,-0.460955 a 0.26460981,0.26460981 0 0 0 0,-0.382923 L 6.9432448,1.1777053 a 0.26460981,0.26460981 0 0 0 -0.1912037,-0.07648 z m -4.6544955,1.685684 c -0.7382459,0 -1.34152001,0.60379 -1.34152001,1.342035 0,0.738249 0.60327411,1.341523 1.34152001,1.341523 0.738246,0 1.342037,-0.603274 1.342037,-1.341523 0,-0.738245 -0.603791,-1.342035 -1.342037,-1.342035 z m 0,0.529167 c 0.4522632,0 0.8128704,0.360606 0.8128704,0.812868 0,0.452263 -0.3606072,0.812356 -0.8128704,0.812356 -0.4522628,0 -0.8123534,-0.360093 -0.8123534,-0.812356 0,-0.452262 0.3600906,-0.812868 0.8123534,-0.812868 z m 0,2.320787 c -1.15747188,0 -2.0975462407833,0.940078 -2.0975462407833,2.097548 v 0.468723 A 0.26460984,0.26460984 0 0 0 0.26354923,8.4666663 H 3.9299921 a 0.26460984,0.26460984 0 0 0 0.2656168,-0.263551 v -0.468704 c 0,-1.15747 -0.9405932,-2.097548 -2.0980633,-2.097548 z m 0,0.529167 c 0.873465,0 1.5683799,0.694915 1.5683799,1.568381 v 0.203089 H 0.52916602 v -0.203089 c 0,-0.873466 0.69491278,-1.568381 1.56837958,-1.568381 z"/></svg:g><text x="0" y="23.4666669" fill="#000000" font-size="5px" font-weight="bold" font-family="'Helvetica Neue', Helvetica, Arial-Unicode, Arial, Sans-serif">Created by Larea</text><text x="0" y="28.4666669" fill="#000000" font-size="5px" font-weight="bold" font-family="'Helvetica Neue', Helvetica, Arial-Unicode, Arial, Sans-serif">from the Noun Project</text></svg>